#!OML:ASF F:\VICON\USERDATA\INSTALL\rory3\rory3.ASF
:FULLY-SPECIFIED
:DEGREES
375
root 0.502211 17.5973 43.6981 -1.19131 -3.28816 -6.76039
lowerback 10.0105 1.19568 5.54605
upperback -0.12187 2.37681 2.35858
thorax -5.63027 1.04524 -0.993609
lowerneck -16.2989 -3.58018 -2.22653
upperneck 21.1789 -4.91046 2.11253
head 9.48788 -2.22823 0.465105
rclavicle 1.37845e-014 7.25564e-015
rhumerus -22.1594 -11.1125 -80.7609
rradius 34.2351
rwrist -3.06227
rhand -17.6617 22.3564
rfingers 7.12502
rthumb 8.59684 -7.4486
lclavicle 1.37845e-014 7.25564e-015
lhumerus -33.8635 11.793 79.611
lradius 19.5797
lwrist 3.85584
lhand -35.3922 24.5216
lfingers 7.12502
lthumb -8.52323 54.3296
rfemur 8.45035 8.18973 34.3131
rtibia 29.424
rfoot -19.6031 -4.20029
rtoes 0.120285
lfemur -24.7604 -2.87009 -12.0408
ltibia 13.6508
lfoot -7.52835 7.12146
ltoes -9.01179
376
root 0.515643 17.5723 43.8613 -1.27172 -3.33867 -7.18443
lowerback 10.4489 1.20965 5.94051
upperback -0.179498 2.48701 2.46122
thorax -5.92214 1.0801 -1.13497
lowerneck -16.1107 -3.69865 -2.43284
upperneck 21.0061 -5.10422 2.46483
head 9.41345 -2.29875 0.599163
rclavicle -4.15584e-015 2.5842e-015
rhumerus -22.3197 -11.7097 -80.6666
rradius 34.2849
rwrist -2.55292
rhand -17.5608 22.2909
rfingers 7.12502
rthumb 8.69416 -7.51011
lclavicle -4.15584e-015 2.5842e-015
lhumerus -33.8657 11.8532 79.5326
lradius 19.3379
lwrist 3.52116
lhand -29.5118 16.5717
lfingers 7.12502
lthumb -2.84602 46.5324
rfemur 8.62343 8.19868 34.8386
rtibia 30.2728
rfoot -19.11 -4.39368
rtoes -2.24256
lfemur -25.1221 -2.656 -11.7241
ltibia 15.3098
lfoot -7.53757 7.05611
ltoes -7.25107
377
root 0.538512 17.5628 44.0664 -1.36059 -3.20007 -6.83002
lowerback 10.1112 1.26076 5.79249
upperback 0.028001 2.48652 2.27476
thorax -5.50871 1.09646 -1.23526
lowerneck -16.6182 -3.79431 -2.21128
upperneck 21.3755 -5.23709 2.20883
head 9.62662 -2.36214 0.445415
rclavicle 9.65348e-015 2.08724e-015
rhumerus -22.3714 -12.1261 -80.6637
rradius 34.5893
rwrist -2.53311
rhand -17.4903 22.0871
rfingers 7.12502
rthumb 8.76224 -7.71105
lclavicle 9.65348e-015 2.08724e-015
lhumerus -33.6355 11.5888 79.6467
lradius 19.2977
lwrist 3.93499
lhand -30.1815 21.9192
lfingers 7.12502
lthumb -3.49276 51.8703
rfemur 8.92164 7.74428 34.299
rtibia 31.1387
rfoot -18.807 -4.33986
rtoes -5.41608
lfemur -25.1603 -2.48213 -12.4444
ltibia 16.7416
lfoot -7.48005 6.3012
ltoes -7.16991
378
root 0.55528 17.5701 44.2946 -1.49484 -3.27423 -6.5055
lowerback 9.70848 1.33123 5.46108
upperback 0.233413 2.49573 2.20406
thorax -5.07458 1.12372 -1.11061
lowerneck -16.8901 -3.77928 -2.26463
upperneck 21.5459 -5.22043 2.2843
head 9.7409 -2.34516 0.476397
rclavicle 5.40756e-014 3.55825e-014
rhumerus -22.419 -12.1707 -80.6453
rradius 34.68
rwrist -2.69046
rhand -17.4118 21.8951
rfingers 7.12502
rthumb 8.83798 -7.89979
lclavicle 5.40756e-014 3.55825e-014
lhumerus -33.5449 11.7794 79.6514
lradius 19.197
lwrist 4.04181
lhand -29.8598 21.3734
lfingers 7.12502
lthumb -3.18202 51.3294
rfemur 9.29749 7.46312 33.7776
rtibia 31.9015
rfoot -18.1599 -3.71204
rtoes -6.26543
lfemur -24.8195 -2.10885 -13.1256
ltibia 17.7514
lfoot -6.91212 5.36829
ltoes -7.33339
379
root 0.567395 17.5895 44.5172 -1.65415 -3.40815 -6.46912
lowerback 9.64855 1.45121 5.38869
upperback 0.329995 2.63779 2.21137
thorax -4.9346 1.20058 -1.07807
lowerneck -17.1164 -3.89229 -2.75125
upperneck 21.6091 -5.38149 2.85071
head 9.84212 -2.39042 0.726827
rclavicle -1.11506e-015 -9.14409e-015
rhumerus -22.4557 -12.5448 -80.5176
rradius 34.3647
rwrist -2.59942
rhand -17.47 22.0027
rfingers 7.12502
rthumb 8.78177 -7.79459
lclavicle -1.11506e-015 -9.14409e-015
lhumerus -33.4337 11.5628 79.8186
lradius 19.0284
lwrist 4.05948
lhand -29.778 20.2641
lfingers 7.12502
lthumb -3.10309 50.2212
rfemur 9.5668 7.37601 33.6545
rtibia 32.6364
rfoot -17.1502 -3.01911
rtoes -5.20246
lfemur -24.534 -1.58125 -13.4298
ltibia 18.6748
lfoot -5.85275 4.28611
ltoes -7.21516
380
root 0.581346 17.6127 44.735 -1.90955 -3.46785 -6.13224
lowerback 9.67071 1.4143 4.94398
upperback -0.0525187 2.55402 2.07406
thorax -5.36649 1.15317 -0.968867
lowerneck -15.5563 -3.75304 -2.71029
upperneck 21.3404 -5.30973 3.19746
head 9.46364 -2.33822 0.878261
rclavicle 2.19502e-014 -5.31749e-015
rhumerus -23.6746 -12.4845 -80.5465
rradius 34.193
rwrist -2.5416
rhand -17.7272 22.1565
rfingers 7.12502
rthumb 8.53362 -7.65102
lclavicle 2.19502e-014 -5.31749e-015
lhumerus -34.6254 11.6086 79.2735
lradius 19.1739
lwrist 3.82789
lhand -31.0682 21.119
lfingers 7.12502
lthumb -4.34902 51.0543
rfemur 9.94501 7.17797 33.2166
rtibia 33.3752
rfoot -15.9557 -2.53734
rtoes -5.2814
lfemur -24.2427 -1.29913 -13.9791
ltibia 19.4178
lfoot -4.52773 2.96803
ltoes -13.6304
381
root 0.594157 17.6256 44.9506 -2.06202 -3.42292 -5.84292
lowerback 9.5831 1.49777 4.68848
upperback 0.23792 2.61291 2.01027
thorax -5.01621 1.19977 -0.89343
lowerneck -17.1834 -3.99789 -2.86945
upperneck 22.3037 -5.60397 3.16463
head 10.1239 -2.4582 0.820927
rclavicle -6.50709e-015 3.47873e-016
rhumerus -23.2928 -13.0223 -80.4853
rradius 33.7806
rwrist -2.6134
rhand -17.9365 22.5649
rfingers 7.12502
rthumb 8.33161 -7.25079
lclavicle -6.50709e-015 3.47873e-016
lhumerus -34.0532 12.0876 79.2898
lradius 19.1127
lwrist 3.01857
lhand -32.9139 28.2318
lfingers 7.12502
lthumb -6.13107 58.123
rfemur 10.1243 6.88998 32.8088
rtibia 34.339
rfoot -14.4934 -2.08424
rtoes -5.31224
lfemur -23.749 -1.00328 -14.4827
ltibia 19.9601
lfoot -4.23714 1.67338
ltoes -14.1753
